<svg xmlns="http://www.w3.org/2000/svg" xmlns:xlink="http://www.w3.org/1999/xlink" clip-rule="evenodd" fill-rule="evenodd" image-rendering="optimizeQuality" shape-rendering="geometricPrecision" text-rendering="geometricPrecision" viewBox="0 0 393.35 360.59" style="fill: rgb(0, 0, 0);" original_string_length="8960"><defs><linearGradient gradientUnits="userSpaceOnUse" id="__id221_snxhxnjpzp" x1="101.2" x2="101.2" y1="5.21" y2="5.21"><stop offset="0" style="stop-color: rgb(252, 254, 253);"/><stop offset="1" style="stop-color: rgb(0, 78, 142);"/></linearGradient><linearGradient gradientUnits="userSpaceOnUse" id="__id222_snxhxnjpzp" x1="486.52" x2="105.24" xlink:href="#__id221_snxhxnjpzp" y1="-2.97" y2="331.67"/></defs><g><path d="M220.19 179.22l3.02 5.32c0.12,0.25 0.24,0.5 0.34,0.76l0.3 0.75 0.82 3.05c0.04,0.25 0.08,0.51 0.11,0.76 0.16,1.25 0.18,2.54 0.06,3.8 -0.02,0.25 -0.05,0.51 -0.09,0.76l-0.1 0.66 -0.87 3.14c-0.1,0.26 -0.2,0.51 -0.31,0.76l-0.35 0.76c-0.13,0.26 -0.26,0.51 -0.4,0.76l-1.52 2.28c-0.2,0.26 -0.41,0.51 -0.63,0.76 -1.02,1.15 -2.23,2.2 -3.54,3.04l-0.88 0.54c-1.39,0.79 -2.85,1.37 -4.33,1.74l-0.01 0c-2.81,0.71 -5.71,0.68 -8.44,0l-2.32 -0.76c-1.01,-0.41 -1.99,-0.92 -2.92,-1.52 -0.7,-0.45 -1.37,-0.96 -2,-1.52 -0.53,-0.47 -1.04,-0.98 -1.52,-1.52 -0.22,-0.24 -0.43,-0.5 -0.63,-0.76l-1.52 -2.28 -17.1 -29.62 -67.3 -116.56 0.03 -0.02 -0.74 -1.22c-0.16,-0.26 -0.32,-0.51 -0.49,-0.76l-1.41 -2 -2.81 -3.32 -0.74 -0.76c-0.8,-0.8 -1.63,-1.56 -2.49,-2.28l-1.5 -1.2 -2.47 -1.73 -4.31 -2.4c-1.89,-0.91 -3.87,-1.67 -5.88,-2.27 -2.56,-0.76 -5.19,-1.28 -7.86,-1.52 -2.89,-0.27 -5.81,-0.22 -8.7,0.15l-3.47 0.61c-0.97,0.22 -1.93,0.47 -2.89,0.76 -2.52,0.77 -4.94,1.78 -7.25,3.04 -0.2,0.11 -0.4,0.22 -0.6,0.33l-0.73 0.42 -2.35 1.52 -1.05 0.76c-0.32,0.24 -0.63,0.48 -0.93,0.72l-1.82 1.55 -1.07 1.01 -1.93 2.04c-0.22,0.25 -0.44,0.51 -0.65,0.76l-1.77 2.28 -0.82 1.19 -0.7 1.09 -1.31 2.28 -0.76 1.52c-0.12,0.25 -0.24,0.5 -0.35,0.76l-0.95 2.28 -0.79 2.28 -0.44 1.52 -0.2 0.76 -0.35 1.52c-0.05,0.25 -0.1,0.51 -0.15,0.76l-0.53 3.8c-0.05,0.51 -0.08,1.01 -0.11,1.52 -0.01,0.25 -0.02,0.51 -0.03,0.76 -0.02,0.51 -0.02,1.01 -0.02,1.52l0.2 3.8c0.05,0.51 0.11,1.01 0.18,1.52 0.04,0.25 0.07,0.51 0.11,0.76l0.28 1.52 0.97 3.8 0.5 1.52c0.09,0.25 0.18,0.51 0.28,0.76 0.29,0.77 0.61,1.53 0.95,2.28l1.12 2.28 0.42 0.76 0.43 0.76 121.09 209.73 1.36 2.28c0.15,0.26 0.3,0.51 0.45,0.76l0.48 0.76c0.16,0.26 0.33,0.51 0.5,0.76l0.53 0.76c0.18,0.26 0.37,0.51 0.55,0.76l1.84 2.28 1.4 1.52 1.01 1 2.3 2.04 1.38 1.08 2.88 1.96 1.33 0.79 4.23 2.06 4.55 1.58 3.9 0.89c4.57,0.81 9.28,0.83 13.91,-0l3.38 -0.76c2.69,-0.73 5.28,-1.75 7.74,-3.04l1.39 -0.76 1.41 -0.76 2.87 -1.98 1.69 -1.35c1.8,-1.53 3.44,-3.2 4.93,-5.02l3.21 -4.56c0.12,-0.2 0.24,-0.41 0.36,-0.62l0.03 0.02 61.72 -106.9 6.79 -11.75 0.09 -0.15 19.97 -34.58 10.83 -18.75 2.05 -3.55 19.31 -33.44 1.39 -2.42 0.72 -1.31 0.02 0.01 0.05 -0.09 1.85 -3.8c0.11,-0.25 0.21,-0.5 0.31,-0.76 0.3,-0.75 0.57,-1.51 0.82,-2.28l0.39 -1.26 0.28 -1.02 0.52 -2.28c0.1,-0.51 0.19,-1.01 0.27,-1.52 0.04,-0.25 0.08,-0.51 0.11,-0.76 0.07,-0.51 0.13,-1.01 0.18,-1.52l0.15 -2.28c0.02,-0.51 0.03,-1.01 0.03,-1.52 -0,-0.25 -0,-0.51 -0.01,-0.76l-0.06 -1.52 -0.16 -1.92 -0.24 -1.88c-0.04,-0.25 -0.08,-0.51 -0.13,-0.76l-0.29 -1.52 -0.36 -1.52 -0.2 -0.76c-0.07,-0.25 -0.14,-0.51 -0.22,-0.76l-1.03 -3.04 -0.96 -2.28c-0.12,-0.25 -0.23,-0.51 -0.36,-0.76l-0.38 -0.76c-0.13,-0.25 -0.26,-0.51 -0.4,-0.76l-0.86 -1.52 -1.41 -2.21 -1.75 -2.35 -1.99 -2.28c-0.24,-0.26 -0.49,-0.51 -0.73,-0.76 -0.79,-0.79 -1.61,-1.55 -2.48,-2.28l-1.92 -1.52 -1.26 -0.9 -0.95 -0.62 -2.67 -1.52c-1.05,-0.56 -2.12,-1.07 -3.2,-1.52 -6.01,-2.53 -12.55,-3.48 -19.02,-2.83 -1.26,0.13 -2.52,0.31 -3.76,0.55l-3.19 0.76 -0.95 0.28 -4.02 1.48c-1.83,0.78 -3.67,1.75 -5.36,2.8l-2.26 1.52 -3.7 3.04 -0.79 0.76 -1.45 1.52 -0.75 0.85 -0.56 0.67 -2.23 3.04 -1.41 2.28c-0.29,0.5 -0.56,1.01 -0.83,1.52l-0.74 1.52 -0.31 0.69 -0.61 1.47 -1.09 3.16 -0.78 3.04c-0.05,0.25 -0.1,0.51 -0.15,0.76l-0.26 1.52 -0.28 2.28 -0.1 1.31 -0.01 0.21 -0.05 1.52c-0,0.25 -0,0.51 -0,0.76l0.21 3.8c0.03,0.25 0.06,0.51 0.09,0.76l0.1 0.74 0.57 3.06c0.06,0.25 0.12,0.51 0.18,0.76l0.41 1.52c0.15,0.51 0.31,1.02 0.48,1.52l0.54 1.52 0.61 1.52 1.29 2.69 -0.33 -0.58 7.09 12.28 3.02 5.32c0.12,0.25 0.24,0.5 0.34,0.76l0.3 0.75 0.82 3.05c0.04,0.25 0.08,0.51 0.11,0.76 0.16,1.25 0.18,2.54 0.06,3.8 -0.02,0.25 -0.05,0.51 -0.09,0.76l-0.1 0.66 -0.87 3.14c-0.07,0.26 -0.2,0.51 -0.31,0.76l-0.35 0.76c-0.12,0.26 -0.26,0.51 -0.4,0.76l-1.52 2.28c-0.2,0.26 -0.41,0.51 -0.63,0.76 -1.02,1.15 -2.23,2.2 -3.54,3.04l-0.88 0.54c-1.39,0.79 -2.85,1.37 -4.33,1.74l-0.01 0c-2.81,0.71 -5.71,0.68 -8.44,0l-2.32 -0.76c-1.04,-0.34 -1.99,-0.92 -2.92,-1.52 -0.7,-0.45 -1.37,-0.96 -2,-1.52 -0.53,-0.47 -1.04,-0.98 -1.52,-1.52 -0.22,-0.24 -0.43,-0.5 -0.63,-0.76l-1.52 -2.28 -10.01 -17.34 0 -0 -0.43 -0.84c-0.37,-0.75 -0.73,-1.51 -1.08,-2.28l-0.5 -1.14 -0.48 -1.14c-0.31,-0.75 -0.61,-1.52 -0.9,-2.28l-0.34 -0.92 -0.47 -1.35 -0.73 -2.28c-0.08,-0.25 -0.15,-0.51 -0.23,-0.76 -0.22,-0.76 -0.43,-1.52 -0.62,-2.28 -0.06,-0.25 -0.13,-0.5 -0.19,-0.76l-0.52 -2.28c-0.05,-0.25 -0.11,-0.51 -0.16,-0.76l-0.42 -2.28 -0.45 -3.04c-0.03,-0.25 -0.06,-0.51 -0.09,-0.76l-0.23 -2.28c-0.02,-0.25 -0.04,-0.51 -0.06,-0.76l-0.17 -3.04 0 -5.32c0.01,-0.25 0.02,-0.51 0.03,-0.76 0.04,-0.76 0.08,-1.52 0.14,-2.28 0.02,-0.25 0.04,-0.51 0.06,-0.76 0.07,-0.76 0.15,-1.52 0.24,-2.28 0.03,-0.25 0.06,-0.51 0.09,-0.76 0.1,-0.76 0.21,-1.52 0.33,-2.28 0.04,-0.25 0.08,-0.51 0.13,-0.76l0.43 -2.28 0.69 -3.04 0.61 -2.28 0.69 -2.28c0.08,-0.25 0.16,-0.51 0.25,-0.76 0.25,-0.76 0.52,-1.52 0.8,-2.28l0.43 -1.14 1.42 -3.42c0.11,-0.25 0.23,-0.51 0.34,-0.76l1.1 -2.28c0.26,-0.51 0.52,-1.01 0.78,-1.52l1.29 -2.32 2.32 -3.76c0.17,-0.25 0.34,-0.51 0.51,-0.76l1.61 -2.28 1.91 -2.5 0.23 -0.29 1.48 -1.77c0.22,-0.26 0.44,-0.51 0.66,-0.76l0.68 -0.76 2.48 -2.59 2.05 -1.96 0.84 -0.76 1.75 -1.52c0.94,-0.79 1.89,-1.55 2.86,-2.28l2.08 -1.52 1.97 -1.34 4.03 -2.46 5.96 -3.04c2.57,-1.17 5.17,-2.17 7.85,-3.04l3.67 -1.08 5.2 -1.19c2.62,-0.5 5.27,-0.87 7.94,-1.08 5.07,-0.41 10.09,-0.32 15.18,0.32 3.01,0.38 5.44,0.84 8.28,1.52l2.89 0.77c3.04,0.87 5.54,1.79 8.63,3.07l4.79 2.25 4.26 2.39 0.08 0.05 3.12 1.98 2.38 1.66c0.68,0.5 1.35,1 2.01,1.52l3.65 3.04 3.22 3.04c0.25,0.25 0.5,0.5 0.75,0.76l3.44 3.8c0.21,0.25 0.42,0.51 0.63,0.76l1.22 1.52 0.27 0.35 2.49 3.45 1 1.52c0.16,0.25 0.32,0.51 0.48,0.76l0.44 0.71 1.36 2.33 0.42 0.76 1.51 2.92 1.84 4.06 1.14 2.9 0.8 2.28c0.08,0.25 0.17,0.51 0.25,0.76l0.47 1.52 0.55 1.96 0.81 3.35c0.06,0.25 0.11,0.51 0.16,0.76l0.9 5.32c0.03,0.25 0.07,0.5 0.1,0.76l0.45 5.32c0.01,0.25 0.02,0.51 0.03,0.76l0.01 5.32c-0.01,0.25 -0.02,0.51 -0.03,0.76l-0.35 4.56 -0.09 0.76c-0.03,0.25 -0.06,0.51 -0.09,0.76l-0.05 0.42 -0.53 3.38c-0.05,0.25 -0.09,0.51 -0.14,0.76l-1.23 5.32c-0.07,0.25 -0.14,0.51 -0.21,0.76l-0.51 1.73 -1.21 3.58c-0.09,0.25 -0.19,0.51 -0.28,0.76l-1.31 3.23 -0.25 0.57 -0.44 0.98 -0.99 2.07c-0.13,0.25 -0.25,0.51 -0.38,0.76l-0.4 0.76 -1.61 2.9 0.02 0.02 -0.54 0.88 -35.54 61.55 -7.6 13.16 -0.23 0.41 -19.97 34.59 -55.55 96.23 -3.08 5.33 0.03 0.02 -0.11 0.19 -0.11 0.19 -2.91 4.57 -2.46 3.37 -2.49 3.04c-0.22,0.26 -0.44,0.51 -0.67,0.76l-4.42 4.56 -3.42 3.04c-0.94,0.78 -1.9,1.54 -2.87,2.28l-2.1 1.52 -2.26 1.52 -2.46 1.52 -1.32 0.76 -6.18 3.12 -3.45 1.44c-1.42,0.55 -2.85,1.06 -4.29,1.52l-3.45 1.01 -5.59 1.27c-1.65,0.31 -3.32,0.56 -4.99,0.76 -8.71,1.03 -17.35,0.5 -25.88,-1.52 -3.3,-0.79 -6.51,-1.8 -9.67,-3.04l-1.91 -0.78 -4.83 -2.26 -4.15 -2.33 -0.06 -0.04 -0.59 -0.36 -2.17 -1.37 -2.77 -1.91 -2.12 -1.59 -0.98 -0.78 -3.69 -3.19 -3.66 -3.64c-0.24,-0.25 -0.47,-0.51 -0.7,-0.76l-1.34 -1.52 -0.27 -0.32 -1.26 -1.52 -1.02 -1.3 -1.62 -2.19 -1.7 -2.49 -1.77 -2.83 -0.93 -1.64 -0.79 -1.4 -120.64 -208.94 -0.62 -0.94 -0.84 -1.52 -0.69 -1.36 -0.16 -0.3 -2.06 -4.26 -0.01 -0.02 -1.56 -3.78c-0.1,-0.25 -0.19,-0.51 -0.28,-0.76l-0.58 -1.63 -1.56 -5.21c-0.07,-0.25 -0.13,-0.5 -0.19,-0.76l-1.12 -5.32c-0.04,-0.25 -0.09,-0.5 -0.13,-0.76l-0.46 -3.37 -0.19 -1.95c-0.02,-0.25 -0.04,-0.51 -0.06,-0.76l-0.21 -5.31c-0,-0.25 -0,-0.51 0,-0.76l0.23 -5.32c0.02,-0.25 0.04,-0.51 0.06,-0.76l0.15 -1.52 0.78 -5.32c0.05,-0.25 0.09,-0.51 0.14,-0.76l0.41 -1.98 1.48 -5.61 0.24 -0.76 0.77 -2.28 0.59 -1.61c0.99,-2.62 2.2,-5.33 3.5,-7.81l3.67 -6.3 1.93 -2.83 1.47 -1.97c0.2,-0.26 0.39,-0.51 0.59,-0.76l4.64 -5.32c0.25,-0.26 0.49,-0.51 0.74,-0.76l3.2 -3.04c0.87,-0.78 1.76,-1.54 2.67,-2.28l1.94 -1.52 1.02 -0.76c0.71,-0.52 1.43,-1.02 2.15,-1.52l3.4 -2.22 2.77 -1.56 2.21 -1.15c3.36,-1.67 6.52,-3 10.11,-4.19 1.75,-0.57 3.5,-1.08 5.27,-1.52l3.39 -0.76c1.52,-0.3 3.05,-0.55 4.57,-0.76 6.54,-0.86 12.95,-0.88 19.56,-0l0.01 0 4.75 0.79c4.36,0.87 8.64,2.13 12.78,3.77l0 0 5.79 2.58 3.71 1.98 3.73 2.28 3.3 2.28 1.44 1.08 4.18 3.48 0.95 0.87 2.25 2.17c0.25,0.25 0.5,0.51 0.74,0.76l3.41 3.8c0.21,0.25 0.42,0.5 0.63,0.76l1.2 1.52 0.43 0.57 1.79 2.47 0.24 0.35 2.03 3.12 0.14 0.21 1.45 2.4 0.87 1.52 66.55 115.26 14.18 24.55z" style="fill: url(&quot;#__id222_snxhxnjpzp&quot;);"/><path d="M101.2 5.21L101.2 5.21" style="fill: url(&quot;#__id221_snxhxnjpzp&quot;);"/><path d="M339.56 187.06L313.38 232.41" style="fill: none;"/><path d="M299.3 187.62L292.31 199.74" style="fill: none;"/></g></svg>